<svg width="17" height="17" viewBox="0 0 17 17" fill="none" xmlns="http://www.w3.org/2000/svg">
<g clip-path="url(#clip0_623_48220)">
<path d="M6.19727 4.43359C6.19727 3.32902 5.30184 2.43359 4.19727 2.43359C3.0927 2.43359 2.19727 3.32902 2.19727 4.43359C2.19727 5.53816 3.0927 6.43359 4.19727 6.43359C5.30184 6.43359 6.19727 5.53816 6.19727 4.43359Z" stroke="#525252" stroke-width="1.33333" stroke-linecap="round" stroke-linejoin="round"/>
<path d="M10.8638 12.4336C10.8638 11.329 9.96834 10.4336 8.86377 10.4336C7.7592 10.4336 6.86377 11.329 6.86377 12.4336C6.86377 13.5382 7.7592 14.4336 8.86377 14.4336C9.96834 14.4336 10.8638 13.5382 10.8638 12.4336Z" stroke="#525252" stroke-width="1.33333" stroke-linecap="round" stroke-linejoin="round"/>
<path d="M15.5303 4.43359C15.5303 3.32902 14.6348 2.43359 13.5303 2.43359C12.4257 2.43359 11.5303 3.32902 11.5303 4.43359C11.5303 5.53816 12.4257 6.43359 13.5303 6.43359C14.6348 6.43359 15.5303 5.53816 15.5303 4.43359Z" stroke="#525252" stroke-width="1.33333" stroke-linecap="round" stroke-linejoin="round"/>
<path d="M9.87012 10.7068L12.5235 6.15345" stroke="#525252" stroke-width="1.33333" stroke-linecap="round" stroke-linejoin="round"/>
<path d="M5.20361 6.16012L7.85695 10.7068" stroke="#525252" stroke-width="1.33333" stroke-linecap="round" stroke-linejoin="round"/>
</g>
<defs>
<clipPath id="clip0_623_48220">
<rect width="16" height="16" fill="white" transform="matrix(0 -1 1 0 0.86377 16.4336)"/>
</clipPath>
</defs>
</svg>
