<svg width="17" height="17" viewBox="0 0 17 17" fill="none" xmlns="http://www.w3.org/2000/svg">
<g clip-path="url(#clip0_623_48448)">
<path d="M12.1973 9.81104V1.81104" stroke="#525252" stroke-width="1.33333" stroke-linecap="round" stroke-linejoin="round"/>
<path d="M6.86388 12.5577L7.53055 9.81104H3.64388C3.43689 9.81104 3.23274 9.76284 3.0476 9.67027C2.86245 9.5777 2.70141 9.4433 2.57721 9.2777C2.45302 9.11211 2.36908 8.91987 2.33205 8.71622C2.29503 8.51256 2.30592 8.30308 2.36388 8.10437L3.91721 2.77104C3.99799 2.49408 4.16642 2.2508 4.39721 2.0777C4.62801 1.90461 4.90872 1.81104 5.19721 1.81104H14.1972C14.5508 1.81104 14.89 1.95151 15.14 2.20156C15.3901 2.45161 15.5305 2.79075 15.5305 3.14437V8.4777C15.5305 8.83132 15.3901 9.17046 15.14 9.42051C14.89 9.67056 14.5508 9.81104 14.1972 9.81104H12.3572C12.1092 9.81117 11.8661 9.88049 11.6552 10.0112C11.4444 10.1419 11.2743 10.3289 11.1639 10.551L8.86388 15.1444C8.5495 15.1405 8.24005 15.0656 7.95868 14.9253C7.6773 14.785 7.43126 14.583 7.23894 14.3342C7.04663 14.0855 6.913 13.7965 6.84806 13.4889C6.78311 13.1813 6.78852 12.8629 6.86388 12.5577Z" stroke="#525252" stroke-width="1.33333" stroke-linecap="round" stroke-linejoin="round"/>
</g>
<defs>
<clipPath id="clip0_623_48448">
<rect width="16" height="16" fill="white" transform="translate(0.86377 0.477783)"/>
</clipPath>
</defs>
</svg>
