<svg width="33" height="25" viewBox="0 0 33 25" fill="none" xmlns="http://www.w3.org/2000/svg">
<path d="M4.53027 0.266927C2.22909 0.266927 0.363607 2.13241 0.363607 4.43359V20.4336C0.363607 22.7348 2.22909 24.6003 4.53027 24.6003H28.5303C30.8315 24.6003 32.6969 22.7348 32.6969 20.4336V4.43359C32.6969 2.13241 30.8315 0.266927 28.5303 0.266927H4.53027Z" fill="#FAFAFA"/>
<path d="M4.53027 0.266927C2.22909 0.266927 0.363607 2.13241 0.363607 4.43359V20.4336C0.363607 22.7348 2.22909 24.6003 4.53027 24.6003H28.5303C30.8315 24.6003 32.6969 22.7348 32.6969 20.4336V4.43359C32.6969 2.13241 30.8315 0.266927 28.5303 0.266927H4.53027Z" stroke="#E4E4E7" stroke-width="0.333333"/>
<path d="M13.5305 6.43359C14.4104 6.4313 15.2784 6.63688 16.0638 7.03359C17.005 7.50397 17.7966 8.22709 18.35 9.12196C18.9034 10.0168 19.1967 11.0481 19.1971 12.1003C19.1994 12.9802 18.9938 13.8482 18.5971 14.6336L19.8638 18.4336L16.0638 17.1669C15.2784 17.5636 14.4104 17.7692 13.5305 17.7669C12.4783 17.7665 11.447 17.4732 10.5522 16.9198C9.65729 16.3664 8.93417 15.5748 8.46379 14.6336C8.06708 13.8482 7.86149 12.9802 7.86379 12.1003V11.7669C7.94045 10.3774 8.52696 9.0649 9.51103 8.08083C10.4951 7.09677 11.8076 6.51025 13.1971 6.43359H13.5305Z" stroke="#525252" stroke-width="1.33333" stroke-linecap="round" stroke-linejoin="round"/>
</svg>
