<svg width="24" height="24" viewBox="0 0 24 24" fill="none" xmlns="http://www.w3.org/2000/svg">
<path d="M14.4414 5.65922C14.6495 6.54141 15.4417 7.19859 16.3877 7.19859C17.492 7.19859 18.3873 6.30328 18.3873 5.19891C18.3873 4.09453 17.492 3.19922 16.3877 3.19922C15.422 3.19922 14.6167 3.88359 14.4292 4.79391C12.812 4.96734 11.5492 6.33891 11.5492 8.00109C11.5492 8.00484 11.5492 8.00766 11.5492 8.01141C9.79047 8.08547 8.18453 8.58609 6.90953 9.37641C6.43609 9.00984 5.84172 8.79141 5.19672 8.79141C3.64891 8.79141 2.39453 10.0458 2.39453 11.5936C2.39453 12.7167 3.05453 13.6842 4.00797 14.1314C4.10078 17.3845 7.64547 20.0011 12.0058 20.0011C16.3661 20.0011 19.9155 17.3817 20.0036 14.1258C20.9495 13.6758 21.6039 12.7111 21.6039 11.5945C21.6039 10.0467 20.3495 8.79234 18.8017 8.79234C18.1595 8.79234 17.568 9.00891 17.0955 9.37266C15.8092 8.57672 14.1855 8.07609 12.4089 8.00953C12.4089 8.00672 12.4089 8.00484 12.4089 8.00203C12.4089 6.81141 13.2939 5.82328 14.4414 5.66109V5.65922ZM6.79703 13.372C6.84391 12.3558 7.51891 11.5758 8.30359 11.5758C9.08828 11.5758 9.68828 12.3998 9.64141 13.4161C9.59453 14.4323 9.00859 14.8017 8.22297 14.8017C7.43734 14.8017 6.75016 14.3883 6.79703 13.372ZM15.7089 11.5758C16.4945 11.5758 17.1695 12.3558 17.2155 13.372C17.2623 14.3883 16.5742 14.8017 15.7895 14.8017C15.0048 14.8017 14.418 14.4333 14.3711 13.4161C14.3242 12.3998 14.9233 11.5758 15.7089 11.5758ZM14.7752 15.7233C14.9223 15.7383 15.0161 15.8911 14.9589 16.028C14.4761 17.182 13.3361 17.993 12.0058 17.993C10.6755 17.993 9.53641 17.182 9.05266 16.028C8.99547 15.8911 9.08922 15.7383 9.23641 15.7233C10.0989 15.6361 11.0317 15.5883 12.0058 15.5883C12.9798 15.5883 13.9117 15.6361 14.7752 15.7233Z" fill="#5B5B5D"/>
</svg>
