<svg width="179" height="34" viewBox="0 0 179 34" fill="none" xmlns="http://www.w3.org/2000/svg">
<circle cx="14.4945" cy="17.1635" r="13.5502" fill="#525252"/>
<path d="M19.9144 17.1635C19.9144 20.6558 17.0833 23.4869 13.591 23.4869C10.0987 23.4869 7.26758 20.6558 7.26758 17.1635C7.26758 13.6712 10.0987 10.8401 13.591 10.8401C15.3604 10.8401 16.96 11.5668 18.1077 12.738" stroke="white" stroke-width="1.80669"/>
<path d="M16.3008 18.9703L19.9142 17.1636L22.1725 20.3253" stroke="white" stroke-width="1.80669"/>
<path d="M45.2968 32.7545C44.0457 32.7545 42.971 32.5845 42.0728 32.2445C41.1746 31.9109 40.4528 31.4618 39.9075 30.8972C39.3622 30.3326 38.9836 29.707 38.7719 29.0205L41.9092 28.2603C42.0504 28.549 42.2557 28.8345 42.5251 29.1168C42.7946 29.4055 43.1571 29.6429 43.6126 29.8289C44.0746 30.0214 44.6552 30.1176 45.3545 30.1176C46.3426 30.1176 47.1606 29.877 47.8086 29.3959C48.4566 28.9211 48.7806 28.1384 48.7806 27.0477V24.2472H48.6073C48.4277 24.6065 48.1646 24.9754 47.8182 25.3539C47.4781 25.7324 47.0258 26.05 46.4612 26.3067C45.9031 26.5633 45.2005 26.6916 44.3537 26.6916C43.2181 26.6916 42.1883 26.4253 41.2644 25.8928C40.347 25.3539 39.6156 24.5519 39.0702 23.4869C38.5313 22.4155 38.2618 21.0746 38.2618 19.4642C38.2618 17.841 38.5313 16.4712 39.0702 15.3549C39.6156 14.2321 40.3502 13.382 41.2741 12.8046C42.1979 12.2207 43.2277 11.9288 44.3633 11.9288C45.2294 11.9288 45.9416 12.0764 46.4997 12.3715C47.0643 12.6602 47.5134 13.0099 47.8471 13.4205C48.1807 13.8247 48.4341 14.2064 48.6073 14.5657H48.7998V12.1213H52.2355V27.1439C52.2355 28.4078 51.9339 29.4536 51.3308 30.2812C50.7278 31.1089 49.9033 31.728 48.8575 32.1386C47.8118 32.5492 46.6248 32.7545 45.2968 32.7545ZM45.3256 23.9585C46.0635 23.9585 46.6922 23.7788 47.2119 23.4195C47.7316 23.0603 48.1261 22.5438 48.3956 21.8701C48.6651 21.1965 48.7998 20.3881 48.7998 19.4449C48.7998 18.5147 48.6651 17.6998 48.3956 17.0005C48.1326 16.3012 47.7412 15.7591 47.2215 15.3741C46.7083 14.9827 46.0763 14.7871 45.3256 14.7871C44.5493 14.7871 43.9013 14.9892 43.3817 15.3934C42.862 15.7976 42.4706 16.3525 42.2076 17.0583C41.9445 17.7576 41.813 18.5531 41.813 19.4449C41.813 20.3496 41.9445 21.1419 42.2076 21.822C42.477 22.4957 42.8716 23.0218 43.3913 23.4003C43.9174 23.7724 44.5622 23.9585 45.3256 23.9585ZM55.8059 26.9033V12.1213H59.1838V14.585H59.3378C59.6072 13.7317 60.0692 13.074 60.7236 12.6121C61.3844 12.1438 62.1383 11.9096 62.9852 11.9096C63.1776 11.9096 63.3926 11.9192 63.6299 11.9384C63.8737 11.9513 64.0758 11.9737 64.2362 12.0058V15.2105C64.0887 15.1592 63.8545 15.1143 63.5337 15.0758C63.2193 15.0309 62.9146 15.0084 62.6195 15.0084C61.9843 15.0084 61.4133 15.1464 60.9064 15.4222C60.406 15.6917 60.0114 16.067 59.7227 16.5482C59.434 17.0294 59.2896 17.5844 59.2896 18.2131V26.9033H55.8059ZM70.5398 27.2017C69.6031 27.2017 68.7594 27.0348 68.0087 26.7012C67.2645 26.3612 66.6742 25.8608 66.238 25.1999C65.8081 24.5391 65.5932 23.7243 65.5932 22.7555C65.5932 21.9214 65.7472 21.2317 66.0551 20.6864C66.3631 20.1411 66.7833 19.7048 67.3158 19.3776C67.8483 19.0504 68.4482 18.8034 69.1155 18.6366C69.7891 18.4633 70.4852 18.3382 71.2038 18.2612C72.0699 18.1714 72.7725 18.0912 73.3114 18.0206C73.8503 17.9436 74.2417 17.8282 74.4855 17.6742C74.7357 17.5138 74.8608 17.2668 74.8608 16.9332V16.8754C74.8608 16.1504 74.6459 15.589 74.216 15.1913C73.7862 14.7935 73.167 14.5946 72.3587 14.5946C71.5053 14.5946 70.8285 14.7807 70.328 15.1528C69.834 15.5249 69.5004 15.9644 69.3272 16.4712L66.0744 16.0093C66.331 15.1111 66.7544 14.3604 67.3447 13.7573C67.935 13.1478 68.6567 12.6923 69.51 12.3908C70.3633 12.0828 71.3065 11.9288 72.3394 11.9288C73.0516 11.9288 73.7605 12.0122 74.4662 12.179C75.172 12.3459 75.8168 12.6217 76.4006 13.0067C76.9844 13.3852 77.4528 13.9017 77.8057 14.5561C78.165 15.2105 78.3446 16.0285 78.3446 17.0101V26.9033H74.9955V24.8727H74.8801C74.6683 25.2833 74.37 25.6683 73.9851 26.0276C73.6065 26.3804 73.1285 26.6659 72.5511 26.8841C71.9801 27.0958 71.3097 27.2017 70.5398 27.2017ZM71.4444 24.6417C72.1437 24.6417 72.75 24.5038 73.2633 24.2279C73.7765 23.9456 74.1711 23.5735 74.447 23.1116C74.7293 22.6496 74.8704 22.146 74.8704 21.6007V19.8588C74.7614 19.9486 74.5753 20.032 74.3123 20.109C74.0556 20.186 73.7669 20.2533 73.4461 20.3111C73.1253 20.3688 72.8078 20.4201 72.4934 20.4651C72.179 20.51 71.9063 20.5485 71.6754 20.5805C71.1557 20.6511 70.6905 20.7666 70.2799 20.927C69.8693 21.0874 69.5453 21.3119 69.3079 21.6007C69.0705 21.883 68.9519 22.2487 68.9519 22.6978C68.9519 23.3393 69.186 23.8237 69.6544 24.1509C70.1227 24.4781 70.7194 24.6417 71.4444 24.6417ZM81.8476 26.9033V12.1213H85.1774V14.6331H85.3507C85.6586 13.7862 86.1687 13.1254 86.8808 12.6506C87.593 12.1694 88.4431 11.9288 89.4311 11.9288C90.432 11.9288 91.2757 12.1726 91.9621 12.6602C92.6551 13.1414 93.1427 13.799 93.425 14.6331H93.5789C93.9061 13.8119 94.4579 13.1575 95.2342 12.6699C96.0169 12.1758 96.944 11.9288 98.0155 11.9288C99.3756 11.9288 100.486 12.3587 101.345 13.2184C102.205 14.0781 102.635 15.3324 102.635 16.9813V26.9033H99.1414V17.5202C99.1414 16.6027 98.8976 15.9323 98.41 15.5088C97.9224 15.079 97.3258 14.8641 96.62 14.8641C95.7796 14.8641 95.1219 15.1271 94.6472 15.6532C94.1788 16.1729 93.9446 16.8497 93.9446 17.6838V26.9033H90.5282V17.3758C90.5282 16.6124 90.2972 16.0029 89.8353 15.5473C89.3798 15.0918 88.7831 14.8641 88.0453 14.8641C87.5449 14.8641 87.0893 14.9924 86.6787 15.249C86.2681 15.4992 85.9409 15.8553 85.6971 16.3172C85.4533 16.7728 85.3314 17.3053 85.3314 17.9148V26.9033H81.8476ZM106.169 26.9033V12.1213H109.499V14.6331H109.672C109.98 13.7862 110.49 13.1254 111.202 12.6506C111.915 12.1694 112.765 11.9288 113.753 11.9288C114.754 11.9288 115.597 12.1726 116.284 12.6602C116.977 13.1414 117.464 13.799 117.746 14.6331H117.9C118.228 13.8119 118.779 13.1575 119.556 12.6699C120.338 12.1758 121.266 11.9288 122.337 11.9288C123.697 11.9288 124.807 12.3587 125.667 13.2184C126.527 14.0781 126.956 15.3324 126.956 16.9813V26.9033H123.463V17.5202C123.463 16.6027 123.219 15.9323 122.732 15.5088C122.244 15.079 121.647 14.8641 120.942 14.8641C120.101 14.8641 119.443 15.1271 118.969 15.6532C118.5 16.1729 118.266 16.8497 118.266 17.6838V26.9033H114.85V17.3758C114.85 16.6124 114.619 16.0029 114.157 15.5473C113.701 15.0918 113.105 14.8641 112.367 14.8641C111.866 14.8641 111.411 14.9924 111 15.249C110.59 15.4992 110.262 15.8553 110.019 16.3172C109.775 16.7728 109.653 17.3053 109.653 17.9148V26.9033H106.169ZM134.744 27.2017C133.808 27.2017 132.964 27.0348 132.213 26.7012C131.469 26.3612 130.879 25.8608 130.443 25.1999C130.013 24.5391 129.798 23.7243 129.798 22.7555C129.798 21.9214 129.952 21.2317 130.26 20.6864C130.568 20.1411 130.988 19.7048 131.52 19.3776C132.053 19.0504 132.653 18.8034 133.32 18.6366C133.994 18.4633 134.69 18.3382 135.408 18.2612C136.275 18.1714 136.977 18.0912 137.516 18.0206C138.055 17.9436 138.446 17.8282 138.69 17.6742C138.94 17.5138 139.065 17.2668 139.065 16.9332V16.8754C139.065 16.1504 138.85 15.589 138.421 15.1913C137.991 14.7935 137.372 14.5946 136.563 14.5946C135.71 14.5946 135.033 14.7807 134.533 15.1528C134.039 15.5249 133.705 15.9644 133.532 16.4712L130.279 16.0093C130.536 15.1111 130.959 14.3604 131.549 13.7573C132.14 13.1478 132.861 12.6923 133.715 12.3908C134.568 12.0828 135.511 11.9288 136.544 11.9288C137.256 11.9288 137.965 12.0122 138.671 12.179C139.377 12.3459 140.021 12.6217 140.605 13.0067C141.189 13.3852 141.657 13.9017 142.01 14.5561C142.37 15.2105 142.549 16.0285 142.549 17.0101V26.9033H139.2V24.8727H139.085C138.873 25.2833 138.575 25.6683 138.19 26.0276C137.811 26.3804 137.333 26.6659 136.756 26.8841C136.185 27.0958 135.514 27.2017 134.744 27.2017ZM135.649 24.6417C136.348 24.6417 136.955 24.5038 137.468 24.2279C137.981 23.9456 138.376 23.5735 138.652 23.1116C138.934 22.6496 139.075 22.146 139.075 21.6007V19.8588C138.966 19.9486 138.78 20.032 138.517 20.109C138.26 20.186 137.972 20.2533 137.651 20.3111C137.33 20.3688 137.012 20.4201 136.698 20.4651C136.384 20.51 136.111 20.5485 135.88 20.5805C135.36 20.6511 134.895 20.7666 134.485 20.927C134.074 21.0874 133.75 21.3119 133.513 21.6007C133.275 21.883 133.156 22.2487 133.156 22.6978C133.156 23.3393 133.391 23.8237 133.859 24.1509C134.327 24.4781 134.924 24.6417 135.649 24.6417ZM146.052 26.9033V12.1213H149.43V14.585H149.584C149.854 13.7317 150.316 13.074 150.97 12.6121C151.631 12.1438 152.385 11.9096 153.232 11.9096C153.424 11.9096 153.639 11.9192 153.876 11.9384C154.12 11.9513 154.322 11.9737 154.483 12.0058V15.2105C154.335 15.1592 154.101 15.1143 153.78 15.0758C153.466 15.0309 153.161 15.0084 152.866 15.0084C152.231 15.0084 151.66 15.1464 151.153 15.4222C150.652 15.6917 150.258 16.067 149.969 16.5482C149.68 17.0294 149.536 17.5844 149.536 18.2131V26.9033H146.052ZM160.281 7.19396V26.9033H156.797V7.19396H160.281ZM166.029 32.4466C165.554 32.4466 165.114 32.4081 164.71 32.3311C164.312 32.2605 163.995 32.1771 163.757 32.0809L164.566 29.367C165.073 29.5146 165.525 29.5851 165.923 29.5787C166.321 29.5723 166.67 29.4472 166.972 29.2034C167.28 28.966 167.54 28.5682 167.751 28.01L168.05 27.2113L162.689 12.1213H166.385L169.792 23.2848H169.945L173.362 12.1213H177.067L171.148 28.6933C170.873 29.4761 170.507 30.1465 170.051 30.7047C169.596 31.2693 169.038 31.6991 168.377 31.9943C167.722 32.2958 166.94 32.4466 166.029 32.4466Z" fill="#525252"/>
</svg>
