<svg width="132" height="34" viewBox="0 0 132 34" fill="none" xmlns="http://www.w3.org/2000/svg">
<path d="M62.2706 7.19396V26.9033H59.0948L49.8079 13.4782H49.6443V26.9033H46.0739V7.19396H49.2689L58.5462 20.6287H58.7194V7.19396H62.2706ZM72.4549 27.192C71.0113 27.192 69.7602 26.8744 68.7016 26.2393C67.643 25.6041 66.8218 24.7155 66.238 23.5735C65.6605 22.4315 65.3718 21.097 65.3718 19.5701C65.3718 18.0431 65.6605 16.7054 66.238 15.557C66.8218 14.4085 67.643 13.5167 68.7016 12.8816C69.7602 12.2464 71.0113 11.9288 72.4549 11.9288C73.8984 11.9288 75.1495 12.2464 76.2081 12.8816C77.2667 13.5167 78.0847 14.4085 78.6622 15.557C79.246 16.7054 79.5379 18.0431 79.5379 19.5701C79.5379 21.097 79.246 22.4315 78.6622 23.5735C78.0847 24.7155 77.2667 25.6041 76.2081 26.2393C75.1495 26.8744 73.8984 27.192 72.4549 27.192ZM72.4741 24.4012C73.2568 24.4012 73.9113 24.1862 74.4374 23.7564C74.9635 23.3201 75.3548 22.7363 75.6114 22.0049C75.8745 21.2734 76.006 20.4586 76.006 19.5604C76.006 18.6558 75.8745 17.8378 75.6114 17.1064C75.3548 16.3686 74.9635 15.7815 74.4374 15.3452C73.9113 14.909 73.2568 14.6908 72.4741 14.6908C71.6721 14.6908 71.0049 14.909 70.4724 15.3452C69.9463 15.7815 69.5517 16.3686 69.2887 17.1064C69.032 17.8378 68.9037 18.6558 68.9037 19.5604C68.9037 20.4586 69.032 21.2734 69.2887 22.0049C69.5517 22.7363 69.9463 23.3201 70.4724 23.7564C71.0049 24.1862 71.6721 24.4012 72.4741 24.4012ZM89.8762 12.1213V14.8159H81.3785V12.1213H89.8762ZM83.4764 8.57977H86.9602V22.4572C86.9602 22.9255 87.0308 23.2848 87.1719 23.535C87.3195 23.7788 87.512 23.9456 87.7494 24.0355C87.9867 24.1253 88.2498 24.1702 88.5385 24.1702C88.7566 24.1702 88.9555 24.1541 89.1352 24.1221C89.3212 24.09 89.4624 24.0611 89.5586 24.0355L90.1457 26.759C89.9596 26.8231 89.6933 26.8937 89.3469 26.9707C89.0069 27.0477 88.5898 27.0926 88.0958 27.1054C87.2233 27.1311 86.4373 26.9996 85.738 26.7108C85.0387 26.4157 84.4837 25.9602 84.0731 25.3443C83.6689 24.7284 83.47 23.9585 83.4764 23.0346V8.57977ZM92.7898 26.9033V12.1213H96.2736V26.9033H92.7898ZM94.5413 10.0233C93.9895 10.0233 93.5148 9.84048 93.117 9.47478C92.7192 9.10266 92.5203 8.65676 92.5203 8.13708C92.5203 7.61099 92.7192 7.16509 93.117 6.79939C93.5148 6.42727 93.9895 6.24121 94.5413 6.24121C95.0995 6.24121 95.5742 6.42727 95.9656 6.79939C96.3634 7.16509 96.5623 7.61099 96.5623 8.13708C96.5623 8.65676 96.3634 9.10266 95.9656 9.47478C95.5742 9.84048 95.0995 10.0233 94.5413 10.0233ZM106.304 27.192C104.86 27.192 103.609 26.8744 102.551 26.2393C101.492 25.6041 100.671 24.7155 100.087 23.5735C99.5095 22.4315 99.2208 21.097 99.2208 19.5701C99.2208 18.0431 99.5095 16.7054 100.087 15.557C100.671 14.4085 101.492 13.5167 102.551 12.8816C103.609 12.2464 104.86 11.9288 106.304 11.9288C107.747 11.9288 108.999 12.2464 110.057 12.8816C111.116 13.5167 111.934 14.4085 112.511 15.557C113.095 16.7054 113.387 18.0431 113.387 19.5701C113.387 21.097 113.095 22.4315 112.511 23.5735C111.934 24.7155 111.116 25.6041 110.057 26.2393C108.999 26.8744 107.747 27.192 106.304 27.192ZM106.323 24.4012C107.106 24.4012 107.76 24.1862 108.286 23.7564C108.812 23.3201 109.204 22.7363 109.46 22.0049C109.723 21.2734 109.855 20.4586 109.855 19.5604C109.855 18.6558 109.723 17.8378 109.46 17.1064C109.204 16.3686 108.812 15.7815 108.286 15.3452C107.76 14.909 107.106 14.6908 106.323 14.6908C105.521 14.6908 104.854 14.909 104.321 15.3452C103.795 15.7815 103.401 16.3686 103.138 17.1064C102.881 17.8378 102.753 18.6558 102.753 19.5604C102.753 20.4586 102.881 21.2734 103.138 22.0049C103.401 22.7363 103.795 23.3201 104.321 23.7564C104.854 24.1862 105.521 24.4012 106.323 24.4012ZM119.828 18.242V26.9033H116.344V12.1213H119.674V14.6331H119.847C120.187 13.8054 120.729 13.1478 121.473 12.6602C122.224 12.1726 123.151 11.9288 124.254 11.9288C125.275 11.9288 126.163 12.147 126.92 12.5832C127.684 13.0195 128.274 13.6515 128.691 14.4791C129.114 15.3067 129.323 16.3108 129.317 17.4913V26.9033H125.833V18.0303C125.833 17.0422 125.576 16.2691 125.063 15.7109C124.556 15.1528 123.854 14.8737 122.955 14.8737C122.346 14.8737 121.804 15.0084 121.329 15.2779C120.861 15.5409 120.492 15.9227 120.222 16.4231C119.959 16.9235 119.828 17.5298 119.828 18.242Z" fill="#525252"/>
<path d="M26.4131 14.7972V27.9368H24.2959L18.1047 18.9867H17.9956V27.9368H15.6153V14.7972H17.7454L23.9302 23.7537H24.0457V14.7972H26.4131Z" fill="#525252"/>
<rect x="8.89944" y="9.03347" width="25.2937" height="23.487" stroke="#525252" stroke-width="1.80669"/>
<path d="M3.17374 2.71005L8.33572 7.22678H32.6925L27.5305 2.71005H3.17374Z" stroke="#525252" stroke-width="1.80669"/>
<path d="M7.99609 8.13006L0.769328 1.80664V27.1003L7.99609 33.4237V8.13006Z" fill="#525252"/>
</svg>
