<svg width="22" height="28" viewBox="0 0 22 28" fill="none" xmlns="http://www.w3.org/2000/svg">
<path id="Union" fill-rule="evenodd" clip-rule="evenodd" d="M16.0822 1.89377C17.7763 2.7135 18.728 3.82528 18.728 4.98455H9.69459L0.661133 4.98455C0.661133 3.82528 1.61287 2.7135 3.30697 1.89377C5.00107 1.07404 7.29877 0.613525 9.69459 0.613525C12.0904 0.613525 14.3881 1.07404 16.0822 1.89377ZM3.30697 26.4337C1.61287 25.6139 0.661133 24.5021 0.661133 23.3429H9.69459L18.728 23.3429C18.728 24.5021 17.7763 25.6139 16.0822 26.4337C14.3881 27.2534 12.0904 27.7139 9.69459 27.7139C7.29877 27.7139 5.00107 27.2534 3.30697 26.4337ZM21.4381 16.3493V19.8461H16.018V16.3493H21.4381ZM6.08121 8.48141H0.661133V11.9782H6.08121V8.48141ZM10.5979 8.48141H21.4381V11.9782H10.5979V8.48141ZM11.5013 16.3493H0.661133V19.8461H11.5013V16.3493Z" fill="#525252"/>
</svg>
