<svg width="28" height="28" viewBox="0 0 28 28" fill="none" xmlns="http://www.w3.org/2000/svg">
<path d="M13.5502 27.1004C21.0338 27.1004 27.1004 21.0338 27.1004 13.5502C27.1004 6.06663 21.0338 0 13.5502 0C6.06663 0 0 6.06663 0 13.5502C0 21.0338 6.06663 27.1004 13.5502 27.1004Z" fill="#525252"/>
<path d="M18.9701 13.5502C18.9701 17.0425 16.139 19.8736 12.6467 19.8736C9.1544 19.8736 6.32328 17.0425 6.32328 13.5502C6.32328 10.0579 9.1544 7.22681 12.6467 7.22681C14.4161 7.22681 16.0157 7.95351 17.1634 9.12471" stroke="white" stroke-width="1.80669"/>
<path d="M15.3565 15.357L18.9699 13.5503L21.2282 16.712" stroke="white" stroke-width="1.80669"/>
</svg>
