<svg width="18" height="18" viewBox="0 0 18 18" fill="none" xmlns="http://www.w3.org/2000/svg">
<path fill-rule="evenodd" clip-rule="evenodd" d="M5.16244 1.84198C3.23125 1.84198 1.66571 3.40752 1.66571 5.33871V13.3387C1.66571 15.2699 3.23125 16.8354 5.16244 16.8354H13.1624C15.0936 16.8354 16.6592 15.2699 16.6592 13.3387V5.33871C16.6592 3.40752 15.0936 1.84198 13.1624 1.84198H5.16244ZM0.65918 5.33871C0.65918 2.85163 2.67536 0.835449 5.16244 0.835449H13.1624C15.6495 0.835449 17.6657 2.85163 17.6657 5.33871V13.3387C17.6657 15.8258 15.6495 17.842 13.1624 17.842H5.16244C2.67536 17.842 0.65918 15.8258 0.65918 13.3387V5.33871ZM9.16224 6.84177C7.78333 6.84177 6.6655 7.9596 6.6655 9.33851C6.6655 10.7174 7.78333 11.8352 9.16224 11.8352C10.5411 11.8352 11.659 10.7174 11.659 9.33851C11.659 7.9596 10.5411 6.84177 9.16224 6.84177ZM5.65897 9.33851C5.65897 7.40371 7.22744 5.83524 9.16224 5.83524C11.097 5.83524 12.6655 7.40371 12.6655 9.33851C12.6655 11.2733 11.097 12.8418 9.16224 12.8418C7.22744 12.8418 5.65897 11.2733 5.65897 9.33851ZM14.1659 4.83864C14.1659 4.5607 13.9406 4.33538 13.6627 4.33538C13.3847 4.33538 13.1594 4.5607 13.1594 4.83864V4.83964C13.1594 5.11759 13.3847 5.34291 13.6627 5.34291C13.9406 5.34291 14.1659 5.11759 14.1659 4.83964V4.83864Z" fill="#525252"/>
</svg>
