<svg width="40" height="40" viewBox="0 0 40 40" fill="none" xmlns="http://www.w3.org/2000/svg">
<rect width="40" height="40" rx="4" fill="#525252"/>
<path d="M20.0012 16.4C19.0464 16.4 18.1307 16.7793 17.4556 17.4544C16.7805 18.1295 16.4012 19.0452 16.4012 20C16.4012 20.9548 16.7805 21.8705 17.4556 22.5456C18.1307 23.2207 19.0464 23.6 20.0012 23.6C20.956 23.6 21.8717 23.2207 22.5468 22.5456C23.2219 21.8705 23.6012 20.9548 23.6012 20C23.6012 19.0452 23.2219 18.1295 22.5468 17.4544C21.8717 16.7793 20.956 16.4 20.0012 16.4ZM20.0012 14C21.5925 14 23.1186 14.6321 24.2438 15.7574C25.3691 16.8826 26.0012 18.4087 26.0012 20C26.0012 21.5913 25.3691 23.1174 24.2438 24.2426C23.1186 25.3679 21.5925 26 20.0012 26C18.4099 26 16.8838 25.3679 15.7586 24.2426C14.6333 23.1174 14.0012 21.5913 14.0012 20C14.0012 18.4087 14.6333 16.8826 15.7586 15.7574C16.8838 14.6321 18.4099 14 20.0012 14ZM27.8012 13.7C27.8012 14.0978 27.6432 14.4794 27.3619 14.7607C27.0806 15.042 26.699 15.2 26.3012 15.2C25.9034 15.2 25.5218 15.042 25.2405 14.7607C24.9592 14.4794 24.8012 14.0978 24.8012 13.7C24.8012 13.3022 24.9592 12.9206 25.2405 12.6393C25.5218 12.358 25.9034 12.2 26.3012 12.2C26.699 12.2 27.0806 12.358 27.3619 12.6393C27.6432 12.9206 27.8012 13.3022 27.8012 13.7ZM20.0012 10.4C17.0324 10.4 16.5476 10.4084 15.1664 10.4696C14.2256 10.514 13.5944 10.64 13.0088 10.868C12.519 11.0484 12.0761 11.3368 11.7128 11.7116C11.3375 12.0747 11.0488 12.5177 10.868 13.0076C10.64 13.5956 10.514 14.2256 10.4708 15.1652C10.4084 16.49 10.4 16.9532 10.4 20C10.4 22.97 10.4084 23.4536 10.4696 24.8348C10.514 25.7744 10.64 26.4068 10.8668 26.9912C11.0708 27.5132 11.3108 27.8888 11.7092 28.2872C12.1136 28.6904 12.4892 28.9316 13.0052 29.1308C13.598 29.36 14.2292 29.4872 15.1652 29.5304C16.49 29.5928 16.9532 29.6 20 29.6C22.97 29.6 23.4536 29.5916 24.8348 29.5304C25.7732 29.486 26.4044 29.36 26.9912 29.1332C27.481 28.9528 27.9239 28.6644 28.2872 28.2896C28.6916 27.8864 28.9328 27.5108 29.132 26.9936C29.36 26.4032 29.4872 25.772 29.5304 24.8336C29.5928 23.51 29.6 23.0456 29.6 20C29.6 17.0312 29.5916 16.5464 29.5304 15.1652C29.486 14.2268 29.3588 13.5932 29.132 13.0076C28.9516 12.5178 28.6632 12.0749 28.2884 11.7116C27.9253 11.3363 27.4823 11.0476 26.9924 10.8668C26.4044 10.6388 25.7732 10.5128 24.8348 10.4696C23.5112 10.4072 23.048 10.4 20 10.4M20 8C23.2604 8 23.6672 8.012 24.9476 8.072C26.2244 8.132 27.0956 8.3324 27.86 8.63C28.652 8.9348 29.3192 9.3476 29.9864 10.0136C30.5968 10.6133 31.069 11.339 31.37 12.14C31.6664 12.9044 31.868 13.7756 31.928 15.0536C31.9844 16.3328 32 16.7396 32 20C32 23.2604 31.988 23.6672 31.928 24.9464C31.868 26.2256 31.6664 27.0944 31.37 27.86C31.069 28.661 30.5968 29.3867 29.9864 29.9864C29.3867 30.5968 28.661 31.069 27.86 31.37C27.0956 31.6664 26.2244 31.868 24.9476 31.928C23.6672 31.9844 23.2604 32 20 32C16.7396 32 16.3328 31.988 15.0524 31.928C13.7756 31.868 12.9056 31.6664 12.14 31.37C11.339 31.069 10.6133 30.5968 10.0136 29.9864C9.40317 29.3867 8.93098 28.661 8.63 27.86C8.3324 27.0956 8.132 26.2244 8.072 24.9464C8.0144 23.6672 8 23.2604 8 20C8 16.7396 8.012 16.3328 8.072 15.0536C8.132 13.7744 8.3324 12.9056 8.63 12.14C8.93098 11.339 9.40317 10.6133 10.0136 10.0136C10.6133 9.40317 11.339 8.93098 12.14 8.63C12.9044 8.3324 13.7744 8.132 15.0524 8.072C16.334 8.0156 16.7408 8 20.0012 8" fill="white"/>
</svg>
