<svg width="40" height="40" viewBox="0 0 40 40" fill="none" xmlns="http://www.w3.org/2000/svg">
<rect width="40" height="40" rx="4" fill="#525252"/>
<path d="M24.8 15.579C26.7096 15.579 28.5409 16.3775 29.8912 17.7988C31.2414 19.2201 32 21.1479 32 23.1579V32H27.2V23.1579C27.2 22.4879 26.9471 21.8453 26.4971 21.3716C26.047 20.8978 25.4365 20.6316 24.8 20.6316C24.1635 20.6316 23.553 20.8978 23.1029 21.3716C22.6529 21.8453 22.4 22.4879 22.4 23.1579V32H17.6V23.1579C17.6 21.1479 18.3586 19.2201 19.7088 17.7988C21.0591 16.3775 22.8904 15.579 24.8 15.579ZM8 16.8421H12.8V32H8V16.8421Z" stroke="white" stroke-width="1.5" stroke-linecap="round" stroke-linejoin="round"/>
<path d="M10.4 13.0526C11.7255 13.0526 12.8 11.9216 12.8 10.5263C12.8 9.13107 11.7255 8 10.4 8C9.07452 8 8 9.13107 8 10.5263C8 11.9216 9.07452 13.0526 10.4 13.0526Z" stroke="white" stroke-width="1.5" stroke-linecap="round" stroke-linejoin="round"/>
</svg>
