<svg width="283" height="52" viewBox="0 0 283 52" fill="none" xmlns="http://www.w3.org/2000/svg">
<path d="M5.24219 48.6562V8.79687H15.5078V12.5H9.71094V44.9531H15.5078V48.6562H5.24219ZM51.7539 8.79687V48.6562H41.4883V44.9531H47.2852V12.5H41.4883V8.79687H51.7539Z" fill="#F97316"/>
<g clip-path="url(#clip0_2202_24987)">
<path d="M29.6668 17C23.4135 17 18.3335 20.5867 18.3335 25C18.3335 26.5867 19.0002 28.12 20.2535 29.44C19.0134 31.0285 18.3378 32.9848 18.3335 35V39.6667C18.3335 41.1467 19.5202 42.3333 21.0002 42.3333H38.3335C39.8135 42.3333 41.0002 41.1467 41.0002 39.6667V35C41.0002 33.3733 40.5468 31.76 39.6668 30.3333L42.3335 27.6667L38.3335 23.6667L35.5335 26.4667C33.731 25.4959 31.7141 24.9917 29.6668 25C27.2002 25 24.9335 25.7067 23.0668 26.88C22.5868 26.2933 22.3335 25.6667 22.3335 25C22.3335 22.6133 25.6135 20.6667 29.6668 20.6667C31.5735 20.6667 33.4002 21.1067 34.7735 21.8933L37.4668 19.2C35.3602 17.7867 32.5735 17 29.6668 17ZM29.6668 27.6667C30.1202 27.6667 30.5602 27.72 31.0002 27.7867C26.8535 28.4267 23.6668 32 23.6668 36.3333V39.6667H21.0002V36.3333C21.0002 34.0348 21.9133 31.8304 23.5386 30.2051C25.1639 28.5798 27.3683 27.6667 29.6668 27.6667Z" fill="#484141"/>
</g>
<path d="M69.3288 36V15.6364H73.0178V24.2571H82.4538V15.6364H86.1527V36H82.4538V27.3494H73.0178V36H69.3288ZM106.899 15.6364V36H103.618L94.0227 22.1293H93.8537V36H90.1648V15.6364H93.4659L103.051 29.517H103.23V15.6364H106.899ZM124.561 22.1392C124.395 21.6023 124.166 21.1217 123.875 20.6974C123.59 20.2666 123.245 19.8987 122.841 19.5938C122.443 19.2888 121.985 19.0601 121.468 18.9077C120.951 18.7486 120.388 18.669 119.778 18.669C118.684 18.669 117.71 18.9441 116.855 19.4943C116 20.0445 115.327 20.8532 114.836 21.9205C114.352 22.9811 114.11 24.2737 114.11 25.7983C114.11 27.3362 114.352 28.6387 114.836 29.706C115.32 30.7732 115.993 31.5852 116.855 32.142C117.717 32.6922 118.717 32.9673 119.858 32.9673C120.892 32.9673 121.787 32.7685 122.542 32.3707C123.305 31.973 123.891 31.4096 124.302 30.6804C124.713 29.9446 124.919 29.0829 124.919 28.0952L125.754 28.2244H120.225V25.3409H128.488V27.7869C128.488 29.5303 128.117 31.0384 127.375 32.3111C126.632 33.5838 125.611 34.5649 124.312 35.2543C123.013 35.937 121.521 36.2784 119.838 36.2784C117.962 36.2784 116.315 35.8575 114.896 35.0156C113.484 34.1671 112.38 32.964 111.585 31.4062C110.796 29.8419 110.402 27.9858 110.402 25.8381C110.402 24.1941 110.634 22.7259 111.098 21.4332C111.568 20.1406 112.225 19.0436 113.066 18.142C113.908 17.2339 114.896 16.5445 116.029 16.0739C117.163 15.5966 118.396 15.358 119.728 15.358C120.855 15.358 121.906 15.5237 122.88 15.8551C123.855 16.1799 124.72 16.6439 125.475 17.2472C126.238 17.8504 126.864 18.5663 127.355 19.3949C127.845 20.2235 128.167 21.1383 128.319 22.1392H124.561ZM139.001 36V15.6364H146.796C148.268 15.6364 149.491 15.8684 150.465 16.3324C151.446 16.7898 152.179 17.4162 152.663 18.2116C153.153 19.0071 153.398 19.9086 153.398 20.9162C153.398 21.7448 153.239 22.4541 152.921 23.044C152.603 23.6274 152.175 24.1013 151.638 24.4659C151.102 24.8305 150.502 25.0923 149.839 25.2514V25.4503C150.561 25.4901 151.254 25.7121 151.917 26.1165C152.586 26.5142 153.133 27.0777 153.558 27.8068C153.982 28.536 154.194 29.4176 154.194 30.4517C154.194 31.5057 153.939 32.4536 153.428 33.2955C152.918 34.1307 152.149 34.7902 151.121 35.2741C150.094 35.758 148.801 36 147.244 36H139.001ZM142.69 32.9176H146.657C147.996 32.9176 148.96 32.6624 149.55 32.152C150.147 31.6349 150.445 30.9721 150.445 30.1634C150.445 29.5601 150.296 29.0166 149.998 28.5327C149.7 28.0421 149.275 27.6577 148.725 27.3793C148.175 27.0942 147.519 26.9517 146.756 26.9517H142.69V32.9176ZM142.69 24.2969H146.339C146.975 24.2969 147.549 24.1809 148.059 23.9489C148.569 23.7102 148.97 23.3755 149.262 22.9446C149.56 22.5071 149.71 21.9901 149.71 21.3935C149.71 20.6046 149.431 19.955 148.874 19.4446C148.324 18.9342 147.505 18.679 146.418 18.679H142.69V24.2969ZM163.906 36.2983C162.414 36.2983 161.122 35.9702 160.028 35.3139C158.934 34.6577 158.086 33.7396 157.483 32.5597C156.886 31.3797 156.588 30.0009 156.588 28.4233C156.588 26.8456 156.886 25.4635 157.483 24.277C158.086 23.0904 158.934 22.169 160.028 21.5128C161.122 20.8565 162.414 20.5284 163.906 20.5284C165.397 20.5284 166.69 20.8565 167.784 21.5128C168.877 22.169 169.723 23.0904 170.319 24.277C170.922 25.4635 171.224 26.8456 171.224 28.4233C171.224 30.0009 170.922 31.3797 170.319 32.5597C169.723 33.7396 168.877 34.6577 167.784 35.3139C166.69 35.9702 165.397 36.2983 163.906 36.2983ZM163.926 33.4148C164.734 33.4148 165.411 33.1927 165.954 32.7486C166.498 32.2978 166.902 31.6946 167.167 30.9389C167.439 30.1832 167.575 29.3414 167.575 28.4134C167.575 27.4787 167.439 26.6335 167.167 25.8778C166.902 25.1155 166.498 24.509 165.954 24.0582C165.411 23.6075 164.734 23.3821 163.926 23.3821C163.097 23.3821 162.408 23.6075 161.858 24.0582C161.314 24.509 160.906 25.1155 160.635 25.8778C160.369 26.6335 160.237 27.4787 160.237 28.4134C160.237 29.3414 160.369 30.1832 160.635 30.9389C160.906 31.6946 161.314 32.2978 161.858 32.7486C162.408 33.1927 163.097 33.4148 163.926 33.4148ZM174.279 36V20.7273H177.879V36H174.279ZM176.089 18.5597C175.519 18.5597 175.028 18.3707 174.617 17.9929C174.206 17.6084 174.001 17.1477 174.001 16.6108C174.001 16.0672 174.206 15.6065 174.617 15.2287C175.028 14.8442 175.519 14.652 176.089 14.652C176.665 14.652 177.156 14.8442 177.56 15.2287C177.971 15.6065 178.177 16.0672 178.177 16.6108C178.177 17.1477 177.971 17.6084 177.56 17.9929C177.156 18.3707 176.665 18.5597 176.089 18.5597ZM185.179 15.6364V36H181.58V15.6364H185.179ZM195.642 36.2983C194.111 36.2983 192.788 35.9801 191.675 35.3438C190.568 34.7008 189.716 33.7926 189.119 32.6193C188.523 31.4394 188.224 30.0507 188.224 28.4531C188.224 26.8821 188.523 25.5033 189.119 24.3168C189.723 23.1236 190.564 22.1955 191.645 21.5327C192.725 20.8632 193.995 20.5284 195.453 20.5284C196.394 20.5284 197.283 20.6809 198.118 20.9858C198.96 21.2841 199.702 21.7481 200.345 22.3778C200.995 23.0076 201.505 23.8097 201.876 24.7841C202.248 25.7519 202.433 26.9053 202.433 28.2443V29.348H189.915V26.9219H198.983C198.976 26.2325 198.827 25.6193 198.536 25.0824C198.244 24.5388 197.836 24.1113 197.312 23.7997C196.795 23.4882 196.192 23.3324 195.503 23.3324C194.767 23.3324 194.121 23.5114 193.564 23.8693C193.007 24.2206 192.573 24.6847 192.261 25.2614C191.956 25.8314 191.801 26.4579 191.794 27.1406V29.2585C191.794 30.1468 191.956 30.9091 192.281 31.5455C192.606 32.1752 193.06 32.6591 193.643 32.9972C194.227 33.3286 194.91 33.4943 195.692 33.4943C196.215 33.4943 196.689 33.4214 197.114 33.2756C197.538 33.1231 197.906 32.901 198.217 32.6094C198.529 32.3177 198.764 31.9564 198.923 31.5256L202.284 31.9034C202.072 32.7917 201.668 33.5672 201.071 34.2301C200.481 34.8864 199.725 35.3968 198.804 35.7614C197.883 36.1193 196.829 36.2983 195.642 36.2983ZM205.478 36V20.7273H208.968V23.2727H209.127C209.406 22.3911 209.883 21.7116 210.559 21.2344C211.242 20.7505 212.021 20.5085 212.896 20.5085C213.095 20.5085 213.317 20.5185 213.562 20.5384C213.814 20.5516 214.023 20.5748 214.189 20.608V23.919C214.036 23.866 213.794 23.8196 213.463 23.7798C213.138 23.7334 212.823 23.7102 212.518 23.7102C211.862 23.7102 211.272 23.8527 210.748 24.1378C210.231 24.4162 209.824 24.804 209.525 25.3011C209.227 25.7983 209.078 26.3717 209.078 27.0213V36H205.478ZM216.58 41.7273V20.7273H220.12V23.2528H220.328C220.514 22.8816 220.776 22.4872 221.114 22.0696C221.452 21.6454 221.909 21.2841 222.486 20.9858C223.063 20.6809 223.799 20.5284 224.694 20.5284C225.873 20.5284 226.937 20.83 227.885 21.4332C228.84 22.0298 229.596 22.9148 230.152 24.0881C230.716 25.2547 230.998 26.6866 230.998 28.3835C230.998 30.0606 230.722 31.4858 230.172 32.6591C229.622 33.8324 228.873 34.7273 227.925 35.3438C226.977 35.9602 225.903 36.2685 224.703 36.2685C223.828 36.2685 223.103 36.1226 222.526 35.831C221.949 35.5393 221.485 35.188 221.134 34.777C220.789 34.3594 220.521 33.965 220.328 33.5938H220.179V41.7273H216.58ZM220.11 28.3636C220.11 29.3513 220.249 30.2164 220.527 30.9588C220.812 31.7012 221.22 32.2812 221.75 32.6989C222.287 33.1098 222.937 33.3153 223.699 33.3153C224.495 33.3153 225.161 33.1032 225.698 32.679C226.235 32.2481 226.639 31.6615 226.911 30.919C227.189 30.17 227.328 29.3182 227.328 28.3636C227.328 27.4157 227.193 26.5739 226.921 25.8381C226.649 25.1023 226.245 24.5256 225.708 24.108C225.171 23.6903 224.501 23.4815 223.699 23.4815C222.93 23.4815 222.277 23.6837 221.74 24.0881C221.203 24.4924 220.796 25.0592 220.517 25.7884C220.246 26.5175 220.11 27.3759 220.11 28.3636ZM237.679 15.6364V36H234.08V15.6364H237.679ZM245.776 36.3082C244.808 36.3082 243.936 36.1359 243.161 35.7912C242.392 35.4399 241.782 34.9228 241.331 34.2401C240.887 33.5573 240.665 32.7154 240.665 31.7145C240.665 30.8527 240.824 30.1402 241.142 29.5767C241.46 29.0133 241.894 28.5625 242.445 28.2244C242.995 27.8864 243.615 27.6312 244.304 27.4588C245 27.2798 245.719 27.1506 246.462 27.071C247.357 26.9782 248.082 26.8954 248.639 26.8224C249.196 26.7429 249.6 26.6236 249.852 26.4645C250.111 26.2988 250.24 26.0436 250.24 25.6989V25.6392C250.24 24.8902 250.018 24.3101 249.574 23.8991C249.13 23.4882 248.49 23.2827 247.655 23.2827C246.773 23.2827 246.074 23.4749 245.557 23.8594C245.046 24.2438 244.702 24.6979 244.523 25.2216L241.162 24.7443C241.427 23.8163 241.865 23.0407 242.474 22.4176C243.084 21.7879 243.83 21.3172 244.712 21.0057C245.593 20.6875 246.568 20.5284 247.635 20.5284C248.371 20.5284 249.103 20.6146 249.832 20.7869C250.562 20.9593 251.228 21.2443 251.831 21.642C252.434 22.0331 252.918 22.5668 253.283 23.2429C253.654 23.919 253.839 24.7642 253.839 25.7784V36H250.379V33.902H250.26C250.041 34.3262 249.733 34.724 249.335 35.0952C248.944 35.4598 248.45 35.7547 247.854 35.9801C247.264 36.1989 246.571 36.3082 245.776 36.3082ZM246.71 33.6634C247.433 33.6634 248.059 33.5208 248.589 33.2358C249.12 32.9441 249.527 32.5597 249.812 32.0824C250.104 31.6051 250.25 31.0848 250.25 30.5213V28.7216C250.137 28.8144 249.945 28.9006 249.673 28.9801C249.408 29.0597 249.11 29.1293 248.778 29.1889C248.447 29.2486 248.119 29.3016 247.794 29.348C247.469 29.3944 247.188 29.4342 246.949 29.4673C246.412 29.5402 245.931 29.6596 245.507 29.8253C245.083 29.991 244.748 30.223 244.503 30.5213C244.258 30.813 244.135 31.1908 244.135 31.6548C244.135 32.3177 244.377 32.8182 244.861 33.1562C245.345 33.4943 245.961 33.6634 246.71 33.6634ZM265.085 20.7273V23.5114H256.305V20.7273H265.085ZM258.473 17.0682H262.072V31.4062C262.072 31.8902 262.145 32.2614 262.291 32.5199C262.444 32.7718 262.643 32.9441 262.888 33.0369C263.133 33.1297 263.405 33.1761 263.703 33.1761C263.929 33.1761 264.134 33.1596 264.32 33.1264C264.512 33.0933 264.658 33.0634 264.757 33.0369L265.364 35.8509C265.171 35.9171 264.896 35.9901 264.538 36.0696C264.187 36.1491 263.756 36.1955 263.246 36.2088C262.344 36.2353 261.532 36.0994 260.81 35.8011C260.087 35.4962 259.514 35.0256 259.089 34.3892C258.672 33.7528 258.466 32.9574 258.473 32.0028V17.0682ZM274.693 36.2983C273.162 36.2983 271.839 35.9801 270.725 35.3438C269.618 34.7008 268.767 33.7926 268.17 32.6193C267.574 31.4394 267.275 30.0507 267.275 28.4531C267.275 26.8821 267.574 25.5033 268.17 24.3168C268.773 23.1236 269.615 22.1955 270.696 21.5327C271.776 20.8632 273.046 20.5284 274.504 20.5284C275.445 20.5284 276.333 20.6809 277.169 20.9858C278.011 21.2841 278.753 21.7481 279.396 22.3778C280.046 23.0076 280.556 23.8097 280.927 24.7841C281.298 25.7519 281.484 26.9053 281.484 28.2443V29.348H268.966V26.9219H278.034C278.027 26.2325 277.878 25.6193 277.586 25.0824C277.295 24.5388 276.887 24.1113 276.363 23.7997C275.846 23.4882 275.243 23.3324 274.554 23.3324C273.818 23.3324 273.172 23.5114 272.615 23.8693C272.058 24.2206 271.624 24.6847 271.312 25.2614C271.007 25.8314 270.851 26.4579 270.845 27.1406V29.2585C270.845 30.1468 271.007 30.9091 271.332 31.5455C271.657 32.1752 272.111 32.6591 272.694 32.9972C273.278 33.3286 273.96 33.4943 274.743 33.4943C275.266 33.4943 275.74 33.4214 276.164 33.2756C276.589 33.1231 276.957 32.901 277.268 32.6094C277.58 32.3177 277.815 31.9564 277.974 31.5256L281.335 31.9034C281.123 32.7917 280.718 33.5672 280.122 34.2301C279.532 34.8864 278.776 35.3968 277.855 35.7614C276.933 36.1193 275.879 36.2983 274.693 36.2983Z" fill="#525252"/>
<defs>
<clipPath id="clip0_2202_24987">
<rect width="32" height="32" fill="white" transform="translate(13 10)"/>
</clipPath>
</defs>
</svg>
