<svg width="32" height="32" viewBox="0 0 32 32" fill="none" xmlns="http://www.w3.org/2000/svg">
<g clip-path="url(#clip0_7599_1601)">
<path d="M16.6668 7C10.4135 7 5.3335 10.5867 5.3335 15C5.3335 16.5867 6.00016 18.12 7.2535 19.44C6.01338 21.0285 5.33781 22.9848 5.3335 25V29.6667C5.3335 31.1467 6.52016 32.3333 8.00016 32.3333H25.3335C26.8135 32.3333 28.0002 31.1467 28.0002 29.6667V25C28.0002 23.3733 27.5468 21.76 26.6668 20.3333L29.3335 17.6667L25.3335 13.6667L22.5335 16.4667C20.731 15.4959 18.7141 14.9917 16.6668 15C14.2002 15 11.9335 15.7067 10.0668 16.88C9.58683 16.2933 9.3335 15.6667 9.3335 15C9.3335 12.6133 12.6135 10.6667 16.6668 10.6667C18.5735 10.6667 20.4002 11.1067 21.7735 11.8933L24.4668 9.2C22.3602 7.78667 19.5735 7 16.6668 7ZM16.6668 17.6667C17.1202 17.6667 17.5602 17.72 18.0002 17.7867C13.8535 18.4267 10.6668 22 10.6668 26.3333V29.6667H8.00016V26.3333C8.00016 24.0348 8.91326 21.8304 10.5386 20.2051C12.1639 18.5798 14.3683 17.6667 16.6668 17.6667Z" fill="#484141"/>
</g>
<defs>
<clipPath id="clip0_7599_1601">
<rect width="32" height="32" fill="white"/>
</clipPath>
</defs>
</svg>
