<svg width="40" height="40" viewBox="0 0 40 40" fill="none" xmlns="http://www.w3.org/2000/svg">
<rect width="40" height="40" rx="4" fill="#525252"/>
<path d="M29.9999 24.92V27.92C30.0011 28.1985 29.944 28.4741 29.8324 28.7293C29.7209 28.9845 29.5572 29.2136 29.352 29.4018C29.1468 29.5901 28.9045 29.7335 28.6407 29.8227C28.3769 29.9119 28.0973 29.945 27.8199 29.92C24.7428 29.5856 21.7869 28.5341 19.1899 26.85C16.7738 25.3146 14.7253 23.2661 13.1899 20.85C11.4999 18.2412 10.4482 15.271 10.1199 12.18C10.0949 11.9034 10.1278 11.6247 10.2164 11.3616C10.3051 11.0985 10.4475 10.8567 10.6347 10.6516C10.8219 10.4465 11.0497 10.2827 11.3037 10.1705C11.5577 10.0583 11.8323 10.0002 12.1099 9.99997H15.1099C15.5952 9.9952 16.0657 10.1671 16.4337 10.4835C16.8017 10.8 17.042 11.2394 17.1099 11.72C17.2366 12.68 17.4714 13.6227 17.8099 14.53C17.9445 14.8879 17.9736 15.2769 17.8938 15.6509C17.8141 16.0248 17.6288 16.3681 17.3599 16.64L16.0899 17.91C17.5135 20.4135 19.5864 22.4864 22.0899 23.91L23.3599 22.64C23.6318 22.3711 23.9751 22.1858 24.3491 22.1061C24.723 22.0263 25.112 22.0554 25.4699 22.19C26.3772 22.5285 27.3199 22.7634 28.2799 22.89C28.7657 22.9585 29.2093 23.2032 29.5265 23.5775C29.8436 23.9518 30.0121 24.4296 29.9999 24.92Z" stroke="white" stroke-width="2" stroke-linecap="round" stroke-linejoin="round"/>
</svg>
