  <svg width="24" height="24" viewBox="0 0 24 24" fill="none" xmlns="http://www.w3.org/2000/svg">
              <path d="M14.4414 5.65873C14.6495 6.54092 15.4417 7.19811 16.3877 7.19811C17.492 7.19811 18.3873 6.30279 18.3873 5.19842C18.3873 4.09404 17.492 3.19873 16.3877 3.19873C15.422 3.19873 14.6167 3.88311 14.4292 4.79342C12.812 4.96686 11.5492 6.33842 11.5492 8.00061C11.5492 8.00436 11.5492 8.00717 11.5492 8.01092C9.79047 8.08498 8.18453 8.58561 6.90953 9.37592C6.43609 9.00936 5.84172 8.79092 5.19672 8.79092C3.64891 8.79092 2.39453 10.0453 2.39453 11.5931C2.39453 12.7162 3.05453 13.6837 4.00797 14.1309C4.10078 17.384 7.64547 20.0006 12.0058 20.0006C16.3661 20.0006 19.9155 17.3812 20.0036 14.1253C20.9495 13.6753 21.6039 12.7106 21.6039 11.594C21.6039 10.0462 20.3495 8.79186 18.8017 8.79186C18.1595 8.79186 17.568 9.00842 17.0955 9.37217C15.8092 8.57623 14.1855 8.07561 12.4089 8.00904C12.4089 8.00623 12.4089 8.00436 12.4089 8.00154C12.4089 6.81092 13.2939 5.82279 14.4414 5.66061V5.65873ZM6.79703 13.3715C6.84391 12.3553 7.51891 11.5753 8.30359 11.5753C9.08828 11.5753 9.68828 12.3994 9.64141 13.4156C9.59453 14.4319 9.00859 14.8012 8.22297 14.8012C7.43734 14.8012 6.75016 14.3878 6.79703 13.3715ZM15.7089 11.5753C16.4945 11.5753 17.1695 12.3553 17.2155 13.3715C17.2623 14.3878 16.5742 14.8012 15.7895 14.8012C15.0048 14.8012 14.418 14.4328 14.3711 13.4156C14.3242 12.3994 14.9233 11.5753 15.7089 11.5753ZM14.7752 15.7228C14.9223 15.7378 15.0161 15.8906 14.9589 16.0275C14.4761 17.1815 13.3361 17.9925 12.0058 17.9925C10.6755 17.9925 9.53641 17.1815 9.05266 16.0275C8.99547 15.8906 9.08922 15.7378 9.23641 15.7228C10.0989 15.6356 11.0317 15.5878 12.0058 15.5878C12.9798 15.5878 13.9117 15.6356 14.7752 15.7228Z" fill="#5B5B5D" />
            </svg>
