<svg width="40" height="40" viewBox="0 0 40 40" fill="none" xmlns="http://www.w3.org/2000/svg">
<rect width="40" height="40" rx="4" fill="#525252"/>
<path d="M31 11.0101C31 11.0101 28.982 12.2021 27.86 12.5401C27.2577 11.8476 26.4573 11.3567 25.567 11.134C24.6767 10.9112 23.7395 10.9673 22.8821 11.2945C22.0247 11.6218 21.2884 12.2045 20.773 12.9638C20.2575 13.7231 19.9877 14.6224 20 15.5401V16.5401C18.2426 16.5856 16.5013 16.1959 14.931 15.4055C13.3607 14.6151 12.0103 13.4487 11 12.0101C11 12.0101 7 21.0101 16 25.0101C13.9405 26.408 11.4872 27.109 9 27.0101C18 32.0101 29 27.0101 29 15.5101C28.9993 15.2314 28.9727 14.9547 28.92 14.6801C29.94 13.6741 31 11.0101 31 11.0101Z" stroke="white" stroke-width="1.5" stroke-linecap="round" stroke-linejoin="round"/>
</svg>
