<svg width="22" height="18" viewBox="0 0 22 18" fill="none" xmlns="http://www.w3.org/2000/svg">
<path d="M21.0002 1.29663C20.0002 1.78663 19.0202 1.98563 18.0002 2.28663C16.8792 1.02163 15.2172 0.951634 13.6202 1.54963C12.0232 2.14763 10.9772 3.60963 11.0002 5.28663V6.28663C7.75524 6.36963 4.86524 4.89163 3.00024 2.28663C3.00024 2.28663 -1.18176 9.71963 7.00024 13.2866C5.12824 14.5336 3.26124 15.3746 1.00024 15.2866C4.30824 17.0896 7.91324 17.7096 11.0342 16.8036C14.6142 15.7636 17.5562 13.0806 18.6852 9.06163C19.022 7.8393 19.1893 6.57649 19.1822 5.30863C19.1802 5.05963 20.6922 2.53663 21.0002 1.29563V1.29663Z" stroke="#525252" stroke-width="1.00653" stroke-linecap="round" stroke-linejoin="round"/>
</svg>
