<svg xmlns="http://www.w3.org/2000/svg" width="24" height="24" viewBox="0 0 24 24" fill="none">
  <path d="M14.4375 5.65873C14.6456 6.54092 15.4378 7.19811 16.3838 7.19811C17.4881 7.19811 18.3834 6.30279 18.3834 5.19842C18.3834 4.09404 17.4881 3.19873 16.3838 3.19873C15.4181 3.19873 14.6128 3.88311 14.4253 4.79342C12.8081 4.96686 11.5453 6.33842 11.5453 8.00061C11.5453 8.00436 11.5453 8.00717 11.5453 8.01092C9.78656 8.08498 8.18062 8.58561 6.90562 9.37592C6.43219 9.00936 5.83781 8.79092 5.19281 8.79092C3.645 8.79092 2.39062 10.0453 2.39062 11.5931C2.39062 12.7162 3.05062 13.6837 4.00406 14.1309C4.09688 17.384 7.64156 20.0006 12.0019 20.0006C16.3622 20.0006 19.9116 17.3812 19.9997 14.1253C20.9456 13.6753 21.6 12.7106 21.6 11.594C21.6 10.0462 20.3456 8.79186 18.7978 8.79186C18.1556 8.79186 17.5641 9.00842 17.0916 9.37217C15.8053 8.57623 14.1816 8.07561 12.405 8.00904C12.405 8.00623 12.405 8.00436 12.405 8.00154C12.405 6.81092 13.29 5.82279 14.4375 5.66061V5.65873ZM6.79313 13.3715C6.84 12.3553 7.515 11.5753 8.29969 11.5753C9.08438 11.5753 9.68438 12.3994 9.6375 13.4156C9.59063 14.4319 9.00469 14.8012 8.21906 14.8012C7.43344 14.8012 6.74625 14.3878 6.79313 13.3715ZM15.705 11.5753C16.4906 11.5753 17.1656 12.3553 17.2116 13.3715C17.2584 14.3878 16.5703 14.8012 15.7856 14.8012C15.0009 14.8012 14.4141 14.4328 14.3672 13.4156C14.3203 12.3994 14.9194 11.5753 15.705 11.5753ZM14.7713 15.7228C14.9184 15.7378 15.0122 15.8906 14.955 16.0275C14.4722 17.1815 13.3322 17.9925 12.0019 17.9925C10.6716 17.9925 9.5325 17.1815 9.04875 16.0275C8.99156 15.8906 9.08531 15.7378 9.2325 15.7228C10.095 15.6356 11.0278 15.5878 12.0019 15.5878C12.9759 15.5878 13.9078 15.6356 14.7713 15.7228Z" fill="#5B5B5D"/>
</svg>