<svg width="17" height="17" viewBox="0 0 17 17" fill="none" xmlns="http://www.w3.org/2000/svg">
<path d="M8.53046 2.34521C9.41037 2.34292 10.2784 2.5485 11.0638 2.94521C12.005 3.41559 12.7966 4.13871 13.35 5.03358C13.9034 5.92845 14.1967 6.95972 14.1971 8.01188C14.1994 8.89179 13.9938 9.7598 13.5971 10.5452L14.8638 14.3452L11.0638 13.0785C10.2784 13.4753 9.41037 13.6808 8.53046 13.6785C7.47829 13.6781 6.44702 13.3848 5.55216 12.8314C4.65729 12.278 3.93417 11.4864 3.46379 10.5452C3.06708 9.7598 2.86149 8.89179 2.86379 8.01188V7.67855C2.94045 6.28898 3.52696 4.97652 4.51103 3.99245C5.49509 3.00839 6.80756 2.42188 8.19712 2.34521H8.53046Z" stroke="#525252" stroke-width="1.33333" stroke-linecap="round" stroke-linejoin="round"/>
</svg>
