<svg width="17" height="17" viewBox="0 0 17 17" fill="none" xmlns="http://www.w3.org/2000/svg">
<g id="icon" clip-path="url(#clip0_561_29150)">
<path id="Vector" d="M12.1973 9.76685V1.76685" stroke="#525252" stroke-width="1.33333" stroke-linecap="round" stroke-linejoin="round"/>
<path id="Vector_2" d="M6.86388 12.5135L7.53055 9.76685H3.64388C3.43689 9.76685 3.23274 9.71865 3.0476 9.62608C2.86245 9.53351 2.70141 9.39911 2.57721 9.23351C2.45302 9.06792 2.36908 8.87568 2.33205 8.67203C2.29503 8.46837 2.30592 8.25889 2.36388 8.06018L3.91721 2.72685C3.99799 2.44989 4.16642 2.20661 4.39721 2.03351C4.62801 1.86042 4.90872 1.76685 5.19721 1.76685H14.1972C14.5508 1.76685 14.89 1.90732 15.14 2.15737C15.3901 2.40742 15.5305 2.74656 15.5305 3.10018V8.43351C15.5305 8.78713 15.3901 9.12627 15.14 9.37632C14.89 9.62637 14.5508 9.76685 14.1972 9.76685H12.3572C12.1092 9.76698 11.8661 9.8363 11.6552 9.96703C11.4444 10.0978 11.2743 10.2847 11.1639 10.5068L8.86388 15.1002C8.5495 15.0963 8.24005 15.0214 7.95868 14.8811C7.6773 14.7408 7.43126 14.5388 7.23894 14.29C7.04663 14.0413 6.913 13.7523 6.84806 13.4447C6.78311 13.1371 6.78852 12.8188 6.86388 12.5135Z" stroke="#525252" stroke-width="1.33333" stroke-linecap="round" stroke-linejoin="round"/>
</g>
<defs>
<clipPath id="clip0_561_29150">
<rect width="16" height="16" fill="white" transform="translate(0.86377 0.433594)"/>
</clipPath>
</defs>
</svg>
