<svg width="17" height="17" viewBox="0 0 17 17" fill="none" xmlns="http://www.w3.org/2000/svg">
<g id="icon" clip-path="url(#clip0_561_29147)">
<path id="Vector" d="M4.94482 7.10791V15.0637" stroke="#0A0A0A" stroke-width="1.32597" stroke-linecap="round" stroke-linejoin="round"/>
<path id="Vector_2" d="M10.2487 4.37633L9.58568 7.10782H13.4509C13.6567 7.10782 13.8597 7.15575 14.0439 7.24781C14.228 7.33987 14.3881 7.47353 14.5116 7.63821C14.6352 7.80289 14.7186 7.99406 14.7555 8.19659C14.7923 8.39912 14.7814 8.60744 14.7238 8.80506L13.1791 14.1089C13.0987 14.3843 12.9312 14.6263 12.7017 14.7984C12.4722 14.9706 12.193 15.0636 11.9061 15.0636H2.95585C2.60418 15.0636 2.26692 14.9239 2.01825 14.6753C1.76958 14.4266 1.62988 14.0893 1.62988 13.7377V8.43379C1.62988 8.08212 1.76958 7.74486 2.01825 7.49619C2.26692 7.24752 2.60418 7.10782 2.95585 7.10782H4.78568C5.03237 7.10769 5.27413 7.03875 5.48378 6.90874C5.69342 6.77874 5.86265 6.59283 5.97242 6.37191L8.25972 1.80396C8.57236 1.80783 8.8801 1.8823 9.15992 2.02181C9.43974 2.16132 9.68442 2.36226 9.87568 2.60961C10.0669 2.85697 10.1998 3.14435 10.2644 3.45028C10.329 3.7562 10.3236 4.07277 10.2487 4.37633Z" stroke="#0A0A0A" stroke-width="1.32597" stroke-linecap="round" stroke-linejoin="round"/>
</g>
<defs>
<clipPath id="clip0_561_29147">
<rect width="15.9116" height="15.9116" fill="white" transform="translate(0.303711 0.478027)"/>
</clipPath>
</defs>
</svg>
