<svg width="115" height="114" viewBox="0 0 115 114" fill="none" xmlns="http://www.w3.org/2000/svg">
<path d="M90.75 14.25H24.25C19.0033 14.25 14.75 18.5033 14.75 23.75V90.25C14.75 95.4967 19.0033 99.75 24.25 99.75H90.75C95.9967 99.75 100.25 95.4967 100.25 90.25V23.75C100.25 18.5033 95.9967 14.25 90.75 14.25Z" stroke="#525252" stroke-width="2" stroke-linecap="round" stroke-linejoin="round"/>
<path d="M43.25 52.25C48.4967 52.25 52.75 47.9967 52.75 42.75C52.75 37.5033 48.4967 33.25 43.25 33.25C38.0033 33.25 33.75 37.5033 33.75 42.75C33.75 47.9967 38.0033 52.25 43.25 52.25Z" stroke="#525252" stroke-width="2" stroke-linecap="round" stroke-linejoin="round"/>
<path d="M100.25 71.2495L85.5915 56.591C83.81 54.8101 81.3941 53.8096 78.875 53.8096C76.3559 53.8096 73.94 54.8101 72.1585 56.591L29 99.7495" stroke="#525252" stroke-width="2" stroke-linecap="round" stroke-linejoin="round"/>
</svg>
