<svg width="160" height="29" viewBox="0 0 160 29" fill="none" xmlns="http://www.w3.org/2000/svg">
<circle cx="4" cy="9.5" r="4" fill="#F97316"/>
<circle cx="14" cy="9.5" r="4" fill="#F97316"/>
<circle cx="4" cy="19.5" r="4" fill="#F97316"/>
<circle cx="14" cy="19.5" r="4" fill="#F97316"/>
<path d="M29.7216 23V5.54545H36.4034C37.6648 5.54545 38.7131 5.74432 39.5483 6.14204C40.3892 6.53409 41.017 7.07102 41.4318 7.75284C41.8523 8.43466 42.0625 9.20739 42.0625 10.071C42.0625 10.7812 41.9261 11.3892 41.6534 11.8949C41.3807 12.3949 41.0142 12.8011 40.554 13.1136C40.0938 13.4261 39.5795 13.6506 39.0114 13.7869V13.9574C39.6307 13.9915 40.2244 14.1818 40.7926 14.5284C41.3665 14.8693 41.8352 15.3523 42.1989 15.9773C42.5625 16.6023 42.7443 17.358 42.7443 18.2443C42.7443 19.1477 42.5256 19.9602 42.0881 20.6818C41.6506 21.3977 40.9915 21.9631 40.1108 22.3778C39.2301 22.7926 38.1222 23 36.7869 23H29.7216ZM32.8835 20.358H36.2841C37.4318 20.358 38.2585 20.1392 38.7642 19.7017C39.2756 19.2585 39.5312 18.6903 39.5312 17.9972C39.5312 17.4801 39.4034 17.0142 39.1477 16.5994C38.892 16.179 38.5284 15.8494 38.0568 15.6108C37.5852 15.3665 37.0227 15.2443 36.3693 15.2443H32.8835V20.358ZM32.8835 12.9688H36.0114C36.5568 12.9688 37.0483 12.8693 37.4858 12.6705C37.9233 12.4659 38.267 12.179 38.517 11.8097C38.7727 11.4347 38.9006 10.9915 38.9006 10.4801C38.9006 9.80398 38.6619 9.24716 38.1847 8.80966C37.7131 8.37216 37.0114 8.15341 36.0795 8.15341H32.8835V12.9688ZM51.0689 23.2557C49.7905 23.2557 48.6825 22.9744 47.745 22.4119C46.8075 21.8494 46.0803 21.0625 45.5632 20.0511C45.0518 19.0398 44.7962 17.858 44.7962 16.5057C44.7962 15.1534 45.0518 13.9687 45.5632 12.9517C46.0803 11.9347 46.8075 11.1449 47.745 10.5824C48.6825 10.0199 49.7905 9.73864 51.0689 9.73864C52.3473 9.73864 53.4553 10.0199 54.3928 10.5824C55.3303 11.1449 56.0547 11.9347 56.5661 12.9517C57.0831 13.9687 57.3416 15.1534 57.3416 16.5057C57.3416 17.858 57.0831 19.0398 56.5661 20.0511C56.0547 21.0625 55.3303 21.8494 54.3928 22.4119C53.4553 22.9744 52.3473 23.2557 51.0689 23.2557ZM51.0859 20.7841C51.7791 20.7841 52.3587 20.5937 52.8246 20.2131C53.2905 19.8267 53.6371 19.3097 53.8643 18.6619C54.0973 18.0142 54.2138 17.2926 54.2138 16.4972C54.2138 15.696 54.0973 14.9716 53.8643 14.3239C53.6371 13.6705 53.2905 13.1506 52.8246 12.7642C52.3587 12.3778 51.7791 12.1847 51.0859 12.1847C50.3757 12.1847 49.7848 12.3778 49.3132 12.7642C48.8473 13.1506 48.4979 13.6705 48.2649 14.3239C48.0376 14.9716 47.924 15.696 47.924 16.4972C47.924 17.2926 48.0376 18.0142 48.2649 18.6619C48.4979 19.3097 48.8473 19.8267 49.3132 20.2131C49.7848 20.5937 50.3757 20.7841 51.0859 20.7841ZM59.9602 23V9.90909H63.0455V23H59.9602ZM61.5114 8.05114C61.0227 8.05114 60.6023 7.8892 60.25 7.56534C59.8977 7.23579 59.7216 6.84091 59.7216 6.38068C59.7216 5.91477 59.8977 5.51989 60.25 5.19602C60.6023 4.86648 61.0227 4.7017 61.5114 4.7017C62.0057 4.7017 62.4261 4.86648 62.7727 5.19602C63.125 5.51989 63.3011 5.91477 63.3011 6.38068C63.3011 6.84091 63.125 7.23579 62.7727 7.56534C62.4261 7.8892 62.0057 8.05114 61.5114 8.05114ZM69.3033 5.54545V23H66.218V5.54545H69.3033ZM78.2713 23.2557C76.9588 23.2557 75.8253 22.983 74.8707 22.4375C73.9219 21.8864 73.1918 21.108 72.6804 20.1023C72.169 19.0909 71.9134 17.9006 71.9134 16.5312C71.9134 15.1847 72.169 14.0028 72.6804 12.9858C73.1974 11.9631 73.919 11.1676 74.8452 10.5994C75.7713 10.0256 76.8594 9.73864 78.1094 9.73864C78.9162 9.73864 79.6776 9.86932 80.3935 10.1307C81.1151 10.3864 81.7514 10.7841 82.3026 11.3239C82.8594 11.8636 83.2969 12.5511 83.6151 13.3864C83.9332 14.2159 84.0923 15.2045 84.0923 16.3523V17.2983H73.3622V15.2188H81.1349C81.1293 14.6278 81.0014 14.1023 80.7514 13.642C80.5014 13.1761 80.152 12.8097 79.7031 12.5426C79.2599 12.2756 78.7429 12.142 78.152 12.142C77.5213 12.142 76.9673 12.2955 76.4901 12.6023C76.0128 12.9034 75.6406 13.3011 75.3736 13.7955C75.1122 14.2841 74.9787 14.821 74.973 15.4062V17.2216C74.973 17.983 75.1122 18.6364 75.3906 19.1818C75.669 19.7216 76.0582 20.1364 76.5582 20.4261C77.0582 20.7102 77.6435 20.8523 78.3139 20.8523C78.7628 20.8523 79.169 20.7898 79.5327 20.6648C79.8963 20.5341 80.2116 20.3438 80.4787 20.0938C80.7457 19.8438 80.9474 19.5341 81.0838 19.1648L83.9645 19.4886C83.7827 20.25 83.4361 20.9148 82.9247 21.483C82.419 22.0455 81.7713 22.483 80.9815 22.7955C80.1918 23.1023 79.2884 23.2557 78.2713 23.2557ZM86.7024 23V9.90909H89.6939V12.0909H89.8303C90.0689 11.3352 90.478 10.7528 91.0575 10.3438C91.6428 9.92898 92.3104 9.72159 93.0604 9.72159C93.2308 9.72159 93.4212 9.73011 93.6314 9.74716C93.8473 9.75852 94.0263 9.77841 94.1683 9.80682V12.6449C94.0376 12.5994 93.8303 12.5597 93.5462 12.5256C93.2678 12.4858 92.9979 12.4659 92.7365 12.4659C92.174 12.4659 91.6683 12.5881 91.2195 12.8324C90.7763 13.071 90.4268 13.4034 90.1712 13.8295C89.9155 14.2557 89.7876 14.7472 89.7876 15.304V23H86.7024ZM96.218 27.9091V9.90909H99.2521V12.0739H99.4311C99.5902 11.7557 99.8146 11.4176 100.104 11.0597C100.394 10.696 100.786 10.3864 101.281 10.1307C101.775 9.86932 102.406 9.73864 103.173 9.73864C104.184 9.73864 105.096 9.99716 105.908 10.5142C106.727 11.0256 107.374 11.7841 107.852 12.7898C108.335 13.7898 108.576 15.017 108.576 16.4716C108.576 17.9091 108.34 19.1307 107.869 20.1364C107.397 21.142 106.755 21.9091 105.942 22.4375C105.13 22.9659 104.21 23.2301 103.181 23.2301C102.431 23.2301 101.809 23.1051 101.315 22.8551C100.82 22.6051 100.423 22.304 100.121 21.9517C99.826 21.5937 99.5959 21.2557 99.4311 20.9375H99.3033V27.9091H96.218ZM99.2436 16.4545C99.2436 17.3011 99.3629 18.0426 99.6016 18.679C99.8459 19.3153 100.195 19.8125 100.65 20.1705C101.11 20.5227 101.667 20.6989 102.32 20.6989C103.002 20.6989 103.573 20.517 104.033 20.1534C104.494 19.7841 104.84 19.2812 105.073 18.6449C105.312 18.0028 105.431 17.2727 105.431 16.4545C105.431 15.642 105.315 14.9205 105.082 14.2898C104.849 13.6591 104.502 13.1648 104.042 12.8068C103.582 12.4489 103.008 12.2699 102.32 12.2699C101.661 12.2699 101.102 12.4432 100.641 12.7898C100.181 13.1364 99.8317 13.6222 99.593 14.2472C99.3601 14.8722 99.2436 15.608 99.2436 16.4545ZM114.303 5.54545V23H111.218V5.54545H114.303ZM121.243 23.2642C120.413 23.2642 119.666 23.1165 119.001 22.821C118.342 22.5199 117.82 22.0767 117.433 21.4915C117.053 20.9062 116.862 20.1847 116.862 19.3267C116.862 18.5881 116.999 17.9773 117.271 17.4943C117.544 17.0114 117.916 16.625 118.388 16.3352C118.859 16.0455 119.391 15.8267 119.982 15.679C120.578 15.5256 121.195 15.4148 121.831 15.3466C122.598 15.267 123.22 15.196 123.697 15.1335C124.175 15.0653 124.521 14.9631 124.737 14.8267C124.959 14.6847 125.07 14.4659 125.07 14.1705V14.1193C125.07 13.4773 124.879 12.9801 124.499 12.6278C124.118 12.2756 123.57 12.0994 122.854 12.0994C122.098 12.0994 121.499 12.2642 121.055 12.5938C120.618 12.9233 120.322 13.3125 120.169 13.7614L117.288 13.3523C117.516 12.5568 117.891 11.892 118.413 11.358C118.936 10.8182 119.575 10.4148 120.331 10.1477C121.087 9.875 121.922 9.73864 122.837 9.73864C123.467 9.73864 124.095 9.8125 124.72 9.96023C125.345 10.108 125.916 10.3523 126.433 10.6932C126.95 11.0284 127.365 11.4858 127.678 12.0653C127.996 12.6449 128.155 13.3693 128.155 14.2386V23H125.189V21.2017H125.087C124.899 21.5653 124.635 21.9062 124.294 22.2244C123.959 22.5369 123.536 22.7898 123.024 22.983C122.518 23.1705 121.925 23.2642 121.243 23.2642ZM122.044 20.9972C122.663 20.9972 123.2 20.875 123.655 20.6307C124.109 20.3807 124.459 20.0511 124.703 19.642C124.953 19.233 125.078 18.7869 125.078 18.304V16.7614C124.982 16.8409 124.817 16.9148 124.584 16.983C124.357 17.0511 124.101 17.1108 123.817 17.1619C123.533 17.2131 123.251 17.2585 122.973 17.2983C122.695 17.3381 122.453 17.3722 122.249 17.4006C121.788 17.4631 121.376 17.5653 121.013 17.7074C120.649 17.8494 120.362 18.0483 120.152 18.304C119.942 18.554 119.837 18.8778 119.837 19.2756C119.837 19.8438 120.044 20.2727 120.459 20.5625C120.874 20.8523 121.402 20.9972 122.044 20.9972ZM137.794 9.90909V12.2955H130.268V9.90909H137.794ZM132.126 6.77273H135.212V19.0625C135.212 19.4773 135.274 19.7955 135.399 20.017C135.53 20.233 135.7 20.3807 135.911 20.4602C136.121 20.5398 136.354 20.5795 136.609 20.5795C136.803 20.5795 136.979 20.5653 137.138 20.5369C137.303 20.5085 137.428 20.483 137.513 20.4602L138.033 22.8722C137.868 22.929 137.632 22.9915 137.325 23.0597C137.024 23.1278 136.655 23.1676 136.217 23.179C135.445 23.2017 134.749 23.0852 134.129 22.8295C133.51 22.5682 133.018 22.1648 132.655 21.6193C132.297 21.0739 132.121 20.392 132.126 19.5739V6.77273ZM146.029 23.2557C144.717 23.2557 143.583 22.983 142.629 22.4375C141.68 21.8864 140.95 21.108 140.438 20.1023C139.927 19.0909 139.671 17.9006 139.671 16.5312C139.671 15.1847 139.927 14.0028 140.438 12.9858C140.955 11.9631 141.677 11.1676 142.603 10.5994C143.529 10.0256 144.617 9.73864 145.867 9.73864C146.674 9.73864 147.435 9.86932 148.151 10.1307C148.873 10.3864 149.509 10.7841 150.06 11.3239C150.617 11.8636 151.055 12.5511 151.373 13.3864C151.691 14.2159 151.85 15.2045 151.85 16.3523V17.2983H141.12V15.2188H148.893C148.887 14.6278 148.759 14.1023 148.509 13.642C148.259 13.1761 147.91 12.8097 147.461 12.5426C147.018 12.2756 146.501 12.142 145.91 12.142C145.279 12.142 144.725 12.2955 144.248 12.6023C143.771 12.9034 143.398 13.3011 143.131 13.7955C142.87 14.2841 142.737 14.821 142.731 15.4062V17.2216C142.731 17.983 142.87 18.6364 143.148 19.1818C143.427 19.7216 143.816 20.1364 144.316 20.4261C144.816 20.7102 145.401 20.8523 146.072 20.8523C146.521 20.8523 146.927 20.7898 147.29 20.6648C147.654 20.5341 147.969 20.3438 148.237 20.0938C148.504 19.8438 148.705 19.5341 148.842 19.1648L151.722 19.4886C151.54 20.25 151.194 20.9148 150.683 21.483C150.177 22.0455 149.529 22.483 148.739 22.7955C147.95 23.1023 147.046 23.2557 146.029 23.2557ZM156.361 23.1875C155.844 23.1875 155.401 23.0057 155.031 22.642C154.662 22.2784 154.48 21.8352 154.486 21.3125C154.48 20.8011 154.662 20.3636 155.031 20C155.401 19.6364 155.844 19.4545 156.361 19.4545C156.861 19.4545 157.295 19.6364 157.665 20C158.04 20.3636 158.23 20.8011 158.236 21.3125C158.23 21.6591 158.139 21.9744 157.963 22.2585C157.793 22.5426 157.565 22.7699 157.281 22.9403C157.003 23.1051 156.696 23.1875 156.361 23.1875Z" fill="#121A26"/>
</svg>
